<?xml version="1.0" encoding="utf-8"?>
<!-- Generator: Adobe Illustrator 25.0.1, SVG Export Plug-In . SVG Version: 6.00 Build 0)  -->
<svg version="1.1" id="Layer_1" xmlns="http://www.w3.org/2000/svg" xmlns:xlink="http://www.w3.org/1999/xlink" x="0px" y="0px"
	 viewBox="0 0 97 97" style="enable-background:new 0 0 97 97;" xml:space="preserve">
<style type="text/css">
	.st0{fill:#FFFFFF;stroke:#4083FB;stroke-width:3;stroke-miterlimit:10;}
	.st1{display:none;fill:#4083FB;}
	.st2{fill:#4083FB;}
</style>
<path class="st0" d="M2.5,2.5h92v92h-92V2.5z"/>
<polyline class="st1" points="92,5 92,92 5,92 5,5 92,5 "/>
<rect class="st1" width="97" height="97"/>
<rect x="5" y="5" class="st2" width="21" height="21"/>
<rect x="27" y="5" class="st1" width="21" height="21"/>
<rect x="49" y="5" class="st1" width="21" height="21"/>
<rect x="71" y="5" class="st1" width="21" height="21"/>
<rect x="5" y="27" class="st1" width="21" height="21"/>
<rect x="27" y="27" class="st1" width="21" height="21"/>
<rect x="49" y="27" class="st1" width="21" height="21"/>
<rect x="71" y="27" class="st1" width="21" height="21"/>
<rect x="5" y="49" class="st1" width="21" height="21"/>
<rect x="27" y="49" class="st1" width="21" height="21"/>
<rect x="49" y="49" class="st1" width="21" height="21"/>
<rect x="71" y="49" class="st1" width="21" height="21"/>
<rect x="5" y="71" class="st1" width="21" height="21"/>
<rect x="27" y="71" class="st1" width="21" height="21"/>
<rect x="49" y="71" class="st1" width="21" height="21"/>
<rect x="71" y="71" class="st1" width="21" height="21"/>
</svg>
