<?xml version="1.0" encoding="utf-8"?>
<!-- Generator: Adobe Illustrator 25.0.1, SVG Export Plug-In . SVG Version: 6.00 Build 0)  -->
<svg version="1.1" id="Layer_1" xmlns="http://www.w3.org/2000/svg" xmlns:xlink="http://www.w3.org/1999/xlink" x="0px" y="0px"
	 viewBox="0 0 97 97" style="enable-background:new 0 0 97 97;" xml:space="preserve">
<style type="text/css">
	.st0{fill:#FFFFFF;stroke:#4083FB;stroke-width:3;stroke-miterlimit:10;}
	.st1{display:none;fill:#4083FB;}
	.st2{fill:#4083FB;}
	.st3{fill:#183167;}
	.st4{fill:#183167;stroke:#FFFFFF;stroke-miterlimit:10;}
</style>
<path class="st0" d="M2.5,94.5v-92h92v92H2.5z"/>
<polyline class="st1" points="5,5 92,5 92,92 5,92 5,5 "/>
<rect class="st1" width="97" height="97"/>
<rect x="5" y="71" class="st2" width="21" height="21"/>
<rect x="5" y="49" class="st2" width="21" height="21"/>
<rect x="5" y="27" class="st2" width="21" height="21"/>
<rect x="5" y="5" class="st3" width="21" height="21"/>
<rect x="27" y="71" class="st2" width="21" height="21"/>
<rect x="27" y="49" class="st1" width="21" height="21"/>
<rect x="27" y="27" class="st1" width="21" height="21"/>
<rect x="27" y="5" class="st2" width="21" height="21"/>
<rect x="49" y="71" class="st2" width="21" height="21"/>
<rect x="49" y="49" class="st1" width="21" height="21"/>
<rect x="49" y="27" class="st1" width="21" height="21"/>
<rect x="49" y="5" class="st2" width="21" height="21"/>
<rect x="71" y="71" class="st3" width="21" height="21"/>
<rect x="71" y="49" class="st2" width="21" height="21"/>
<rect x="71" y="27" class="st2" width="21" height="21"/>
<rect x="71" y="5" class="st2" width="21" height="21"/>
<rect x="27" y="27" class="st1" width="43" height="43"/>
<path class="st4" d="M15.5,62.9c8.6,1,21.2,18,21.2,18s16.4-35.1,44.8-43.2V16.1C56.1,27.9,36.1,68.4,36.1,68.4s-6.3-16.9-20.6-19.4
	V62.9z"/>
</svg>
