<?xml version="1.0" encoding="utf-8"?>
<!-- Generator: Adobe Illustrator 25.0.1, SVG Export Plug-In . SVG Version: 6.00 Build 0)  -->
<svg version="1.1" id="Layer_1" xmlns="http://www.w3.org/2000/svg" xmlns:xlink="http://www.w3.org/1999/xlink" x="0px" y="0px"
	 viewBox="0 0 97 97" style="enable-background:new 0 0 97 97;" xml:space="preserve">
<style type="text/css">
	.st0{fill:#FFFFFF;stroke:#E2BC00;stroke-width:3;stroke-miterlimit:10;}
	.st1{display:none;fill:#4083FB;}
	.st2{fill:#E2BC00;}
	.st3{fill:#AB8500;}
	.st4{display:none;fill:#E2BC00;}
	.st5{display:none;}
	.st6{display:inline;fill:#FFFFFF;}
	.st7{display:inline;fill:#4083FB;}
	.st8{display:inline;fill:#E2BC00;}
	.st9{display:none;fill:#FFFFFF;stroke:#E2BC00;stroke-miterlimit:10;}
	.st10{display:none;fill:#AB8500;stroke:#FFFFFF;stroke-miterlimit:10;}
	.st11{fill:#AB8500;stroke:#FFFFFF;stroke-miterlimit:10;}
</style>
<path class="st0" d="M2.5,94.5v-92h92v92H2.5z"/>
<polyline class="st1" points="5,5 92,5 92,92 5,92 5,5 "/>
<rect class="st1" width="97" height="97"/>
<rect x="5" y="71" class="st2" width="21" height="21"/>
<rect x="5" y="49" class="st2" width="21" height="21"/>
<rect x="5" y="27" class="st2" width="21" height="21"/>
<rect x="5" y="5" class="st3" width="21" height="21"/>
<rect x="27" y="71" class="st2" width="21" height="21"/>
<rect x="27" y="49" class="st4" width="21" height="21"/>
<rect x="27" y="27" class="st4" width="21" height="21"/>
<rect x="27" y="5" class="st2" width="21" height="21"/>
<rect x="49" y="71" class="st2" width="21" height="21"/>
<rect x="49" y="49" class="st4" width="21" height="21"/>
<rect x="49" y="27" class="st4" width="21" height="21"/>
<rect x="49" y="5" class="st2" width="21" height="21"/>
<rect x="71" y="71" class="st3" width="21" height="21"/>
<rect x="71" y="49" class="st2" width="21" height="21"/>
<rect x="71" y="27" class="st2" width="21" height="21"/>
<rect x="71" y="5" class="st2" width="21" height="21"/>
<rect x="27" y="27" class="st4" width="43" height="43"/>
<g class="st5">
	<polygon class="st6" points="56.1,52.9 57.3,63.7 48.5,57.3 39.7,63.7 40.9,52.9 31,48.5 40.9,44.1 39.7,33.3 48.5,39.7 57.3,33.3 
		56.1,44.1 66,48.5 	"/>
	<path class="st7" d="M33.5,48.5l7.2-3.2l1.3-0.6l-0.2-1.5L41,35.4l6.3,4.6l1.2,1l1.2-0.9l6.3-4.6l-0.8,7.8L55,44.7l1.3,0.6l7.2,3.2
		l-7.2,3.2L55,52.3l0.2,1.5l0.8,7.7l-6.3-4.6L48.5,56l-1.2,0.9L41,61.5l0.8-7.8l0.2-1.5l-1.3-0.6L33.5,48.5 M28.5,48.5l11.3,5
		l-1.3,12.3l10-7.3l10,7.3l-1.3-12.3l11.3-5l-11.3-5l1.3-12.3l-10,7.3l-10-7.3l1.3,12.3L28.5,48.5L28.5,48.5z"/>
</g>
<g class="st5">
	<polygon class="st6" points="56.4,51.8 60.5,60.5 51.8,56.4 48.5,65.5 45.2,56.4 36.5,60.5 40.6,51.8 31.5,48.5 40.6,45.2 
		36.5,36.5 45.2,40.6 48.5,31.5 51.8,40.6 60.5,36.5 56.4,45.2 65.5,48.5 	"/>
	<path class="st8" d="M34.5,48.5l5.5-1.9l2.1-0.7l-1-2l-2.5-5.2l5.2,2.5l2,1l0.7-2.1l1.9-5.5l1.9,5.5l0.9,1.9l2-1l5.2-2.5l-2.5,5.2
		l-1,2l2.1,0.7l5.5,1.9L57,50.2l-2,1l1,2l2.5,5.2l-5.2-2.5l-2-1L50.6,57l-1.9,5.5L46.8,57l-0.7-2.1l-2,1l-5.2,2.5l2.5-5.2l1-2
		l-2.1-0.7L34.5,48.5 M28.5,48.5l10.8,3.8l-4.9,10.3l10.3-4.9l3.8,10.8l3.8-10.8l10.3,4.9l-4.9-10.3l10.8-3.8l-10.8-3.8l4.9-10.3
		l-10.3,4.9l-3.8-10.8l-3.8,10.8l-10.3-4.9l4.9,10.3L28.5,48.5L28.5,48.5z"/>
</g>
<polygon class="st9" points="48.5,28.5 52.3,39.3 62.6,34.4 57.7,44.7 68.5,48.5 57.7,52.3 62.6,62.6 52.3,57.7 48.5,68.5 
	44.7,57.7 34.4,62.6 39.3,52.3 28.5,48.5 39.3,44.7 34.4,34.4 44.7,39.3 "/>
<path class="st9" d="M28.5,57.1c5.2,0.6,12.8,10.8,12.8,10.8s9.9-21.1,27.2-26v-13C53.1,36,41,60.4,41,60.4s-3.8-10.2-12.5-11.7
	V57.1z"/>
<path class="st10" d="M23,59.6c6.7,0.8,16.3,13.9,16.3,13.9S52,46.4,74,40.1V23.4c-19.6,9.1-35,40.4-35,40.4s-4.8-13-16-15V59.6z"/>
<path class="st11" d="M15.5,62.8c8.6,1,21.2,18,21.2,18s16.4-35.1,44.8-43.2V16C56.1,27.8,36.1,68.3,36.1,68.3s-6.3-16.9-20.6-19.4
	V62.8z"/>
</svg>
