<?xml version="1.0" encoding="utf-8"?>
<!-- Generator: Adobe Illustrator 25.0.1, SVG Export Plug-In . SVG Version: 6.00 Build 0)  -->
<svg version="1.1" id="Layer_1" xmlns="http://www.w3.org/2000/svg" xmlns:xlink="http://www.w3.org/1999/xlink" x="0px" y="0px"
	 viewBox="0 0 97 97" style="enable-background:new 0 0 97 97;" xml:space="preserve">
<style type="text/css">
	.st0{fill:#DDDDDD;}
	.st1{fill:#FFFFFF;}
</style>
<path class="st0" d="M0,97L0,0l97,0v97H0z"/>
<path class="st1" d="M5,92V71h21v21H5z M5,70V49h21v21H5z M5,48V27h21v21H5z"/>
<path class="st0" d="M5,26V5h21v21H5z"/>
<path class="st1" d="M27,92V71h21v21H27z"/>
<path class="st0" d="M27,70V49h21v21H27z"/>
<path class="st1" d="M27,48V27h21v21H27z M27,26V5h21v21H27z M49,92V71h21v21H49z M49,70V49h21v21H49z"/>
<path class="st0" d="M49,48V27h21v21H49z"/>
<path class="st1" d="M49,26V5h21v21H49z"/>
<path class="st0" d="M71,92V71h21v21H71z"/>
<path class="st1" d="M71,70V49h21v21H71z M71,48V27h21v21H71z M71,26V5h21v21H71z"/>
</svg>
