<svg width="20" height="20" viewBox="0 0 20 20" fill="none" xmlns="http://www.w3.org/2000/svg">
<path d="M6.60337 2.30017L2.72156 5.25233V13.7542L7.38741 2.30017H6.60337Z" fill="#FF3833"/>
<path d="M17.6101 17.5844V9.5L10.2769 17.5844H17.6101Z" fill="#FF3833"/>
<path d="M17.6102 8.62381V2.30017H14.5946L12 11L17.6102 8.62381Z" fill="#E87E7E"/>
<path d="M2.72156 15.2148V17.5844H9.66003L11.8011 10.9512L2.72156 15.2148Z" fill="#E87E7E"/>
<path d="M14.5945 2.30017H7.38741L2.72156 13.7542V15.2148L11.8011 10.9512L14.5945 2.30017Z" fill="#E20736"/>
<path d="M18.5449 8.52535C18.4781 8.45927 18.396 8.41169 18.3063 8.38708C18.2166 8.36247 18.1224 8.36163 18.0323 8.38464V1.87807H15.1538C15.1649 1.77479 15.1384 1.67096 15.0795 1.58645C15.0207 1.50194 14.9335 1.44269 14.8347 1.42004C14.7359 1.39739 14.6325 1.41293 14.5442 1.46369C14.4559 1.51445 14.3889 1.59686 14.3561 1.69514L14.2958 1.87807H7.96041C7.96061 1.79468 7.94276 1.71229 7.90815 1.63685C7.87354 1.56141 7.82304 1.49481 7.76029 1.44186C7.66378 1.35707 7.54159 1.30932 7.41458 1.30675C7.28758 1.30418 7.16366 1.34697 7.06397 1.42779L6.4828 1.87807H2.31039V5.03848L1.4633 5.68295C1.41681 5.71456 1.37706 5.75556 1.34649 5.80344C1.31591 5.85132 1.29514 5.90509 1.28544 5.96147C1.27574 6.01785 1.27732 6.07566 1.29007 6.1314C1.30282 6.18713 1.32648 6.23962 1.35961 6.28568C1.39275 6.33173 1.43466 6.37038 1.4828 6.39928C1.53095 6.42819 1.58431 6.44673 1.63966 6.45379C1.695 6.46086 1.75116 6.45629 1.80474 6.44037C1.85831 6.42445 1.90816 6.39751 1.95127 6.36118L2.31039 6.07976V13.6642L1.76211 15.0038C1.71063 15.1079 1.69195 15.2258 1.70865 15.3413C1.72535 15.4567 1.77661 15.564 1.85532 15.6482C1.91246 15.7114 1.98297 15.7602 2.06139 15.7909C2.13981 15.8217 2.22407 15.8335 2.30765 15.8255V18.001H9.08986L9.07341 18.0516V18.122C9.06287 18.2497 9.09513 18.3774 9.16487 18.4838C9.23461 18.5901 9.33764 18.6689 9.45692 18.707C9.57619 18.745 9.70455 18.7402 9.82076 18.6931C9.93697 18.6461 10.0341 18.5598 10.096 18.4484L10.4962 18.015H18.0213V9.88745L18.6244 9.23736L18.6546 9.16137C18.7021 9.05662 18.7171 8.93939 18.6975 8.82561C18.6779 8.71182 18.6246 8.60699 18.5449 8.52535V8.52535ZM17.2099 8.71672L12.3028 10.7711L14.9016 2.72235H17.2099V8.71672ZM17.0947 9.67638L10.2741 17.0216L11.9656 11.8237L17.0947 9.67638ZM11.2912 11.1905L3.13281 14.6041V13.8387L7.6616 2.72235H14.0244L11.2912 11.1905ZM3.13281 2.72235H5.35608L3.13281 4.4109V2.72235ZM3.13281 5.46343L6.73775 2.72235H6.77064L3.13281 11.652V5.46343ZM3.13281 17.1623V15.516L10.9513 12.2571L9.36126 17.1623H3.13281ZM17.1989 17.1623H11.2775L17.1989 10.7768V17.1623Z" fill="black"/>
</svg>
