<?xml version="1.0" encoding="utf-8"?>
<!-- Generator: Adobe Illustrator 24.3.0, SVG Export Plug-In . SVG Version: 6.00 Build 0)  -->
<svg version="1.1" id="Layer_1" xmlns="http://www.w3.org/2000/svg" xmlns:xlink="http://www.w3.org/1999/xlink" x="0px" y="0px"
	 viewBox="0 0 20 20" style="enable-background:new 0 0 20 20;" xml:space="preserve">
<style type="text/css">
	.st0{fill:#84BAED;}
	.st1{fill:#CCB40C;}
	.st2{fill:#B58235;}
	.st3{fill:#47A590;}
	.st4{fill:#903D40;}
</style>
<g>
	<path d="M12.7212,2.1297c-0.98,0.0021-1.9379,0.2915-2.7552,0.8323C8.9881,2.3308,7.8229,2.0551,6.6659,2.1811
		C5.5088,2.3071,4.4303,2.827,3.611,3.6538C2.7918,4.4806,2.2818,5.5639,2.1665,6.7221s0.1711,2.3208,0.8112,3.2928
		c-0.6355,0.975-0.9165,2.1389-0.7959,3.2965c0.1207,1.1576,0.6357,2.2385,1.4586,3.0614c0.823,0.823,1.9039,1.3379,3.0615,1.4587
		c1.1576,0.1207,2.3214-0.1604,3.2965-0.7958c0.9784,0.6382,2.147,0.9193,3.3086,0.7957c1.1616-0.1236,2.245-0.6442,3.0672-1.474
		c0.8222-0.8299,1.3329-1.918,1.4458-3.0807c0.1129-1.1626-0.179-2.3287-0.8262-3.3012c0.5022-0.7668,0.7872-1.6553,0.8249-2.571
		c0.0377-0.9158-0.1735-1.8247-0.6109-2.6301c-0.4376-0.8054-1.085-1.4773-1.8738-1.9442c-0.7887-0.467-1.6891-0.7115-2.6058-0.7076
		L12.7212,2.1297z M10.8683,5.249l-1.7937,0C9.3037,4.8145,9.6079,4.424,9.9732,4.0956C10.3367,4.4247,10.6397,4.8151,10.8683,5.249
		z M11.0064,13.8786l-2.1148,0.0018l-0.1435,0c-0.1866-0.6709-0.2002-1.3781-0.0394-2.0556c0.3753,0.2621,0.8223,0.402,1.28,0.4008
		c0.4578-0.0013,0.904-0.1437,1.2778-0.4079c0.0766,0.313,0.1169,0.6338,0.1202,0.956c0.0002,0.3746-0.0505,0.7475-0.1507,1.1085
		L11.0064,13.8786z M7.7059,7.744c-0.174-0.0161-0.339-0.0197-0.5166-0.0251c-0.3584,0.0039-0.7155,0.0448-1.0655,0.122l0-0.3193
		c-0.0003-0.1852,0.036-0.3687,0.1068-0.5398c0.0708-0.1712,0.1746-0.3267,0.3055-0.4576c0.131-0.131,0.2865-0.2348,0.4577-0.3056
		c0.1712-0.0708,0.3547-0.1071,0.5399-0.1068L7.7723,6.11l0.0233,0.0018C7.7155,6.4752,7.6752,6.8463,7.6754,7.2185
		C7.6753,7.3941,7.6855,7.5696,7.7059,7.744z M10.9562,9.0247c0.193,0.1923,0.3247,0.4377,0.3784,0.7049
		c0.0535,0.2672,0.0267,0.5443-0.0773,0.7963c-0.1039,0.2519-0.2803,0.4674-0.5067,0.619c-0.2264,0.1517-0.4927,0.2328-0.7653,0.233
		c-0.2725,0.0003-0.539-0.0803-0.7657-0.2316C8.9928,10.9951,8.816,10.78,8.7116,10.5282
		c-0.1044-0.2517-0.1318-0.5288-0.0787-0.7961C8.686,9.4648,8.8173,9.2193,9.01,9.0265c0.258-0.258,0.6079-0.4031,0.9727-0.4034
		C10.3476,8.6228,10.6977,8.7672,10.9562,9.0247z M7.1983,8.6319c0.3244-0.0003,0.6477,0.0377,0.9632,0.113
		C7.905,9.115,7.7667,9.554,7.7648,10.0042c-0.0019,0.4502,0.1326,0.8905,0.386,1.2627c-0.6696,0.1591-1.3684,0.1474-2.0323-0.0341
		l0-0.0287l0-2.1525L6.1167,8.7772C6.4693,8.6815,6.8329,8.6327,7.1983,8.6319z M12.2943,12.77
		c-0.0005-0.1713-0.0101-0.3426-0.0287-0.513c0.1688,0.0153,0.3381,0.0219,0.5076,0.0197c0.3652-0.0037,0.729-0.0464,1.0852-0.1273
		l0.0305-0.0054l0.0018,0.0844v0.244c-0.0014,0.3735-0.1504,0.7312-0.4145,0.9953c-0.2641,0.2641-0.6218,0.4131-0.9954,0.4145
		l-0.3103-0.0018c0.0813-0.3657,0.1215-0.7393,0.1202-1.1139L12.2943,12.77z M12.775,11.3709
		c-0.3205,0.0025-0.6403-0.033-0.9525-0.1058c0.2536-0.3738,0.3875-0.8157,0.3843-1.2673
		c-0.0032-0.4516-0.1434-0.8917-0.4023-1.2618c0.6845-0.1683,1.4006-0.1597,2.0807,0.0252l0,0.7174l0,1.0762l0.0018,0.6153
		c-0.361,0.1167-0.7365,0.1831-1.1157,0.1973L12.775,11.3709z M11.2521,8.1656c-0.3758-0.2612-0.8229-0.4004-1.2806-0.3984
		S9.0678,7.9119,8.6943,8.1763C8.5279,7.4942,8.5396,6.7808,8.7284,6.1045l0.2224,0l1.9875,0l0.2708,0.0018
		C11.399,6.7778,11.4138,7.4868,11.2521,8.1656z M3.044,7.2113c0.0003-1.105,0.4394-2.1647,1.2207-2.9461
		c0.7814-0.7814,1.8411-1.2205,2.9461-1.2207c0.6998-0.0031,1.3887,0.1722,2.0018,0.5094c-0.4939,0.481-0.8835,1.0586-1.1444,1.6969
		L7.5373,5.2472c-0.2984-0.0007-0.594,0.0575-0.8698,0.1713C6.3916,5.5324,6.1409,5.6996,5.9299,5.9106
		c-0.211,0.211-0.3783,0.4616-0.4921,0.7375C5.324,6.924,5.2657,7.2196,5.2664,7.518V8.11c-0.6093,0.2564-1.163,0.6286-1.6305,1.096
		L3.5768,9.2651C3.2236,8.6385,3.0399,7.9306,3.044,7.2113z M4.1167,10.0167c0.3265-0.3634,0.7145-0.6664,1.1462-0.8951l0,1.7937
		c-0.37-0.1961-0.7086-0.4464-1.0045-0.7426C4.2082,10.1153,4.1615,10.0651,4.1167,10.0167z M9.175,16.3665
		c0.0233,0.0233,0.0448,0.0448,0.0682,0.0682c-0.7915,0.4413-1.7053,0.6124-2.6029,0.4874
		c-0.8976-0.125-1.7299-0.5394-2.3707-1.1801c-0.6408-0.6408-1.0552-1.4731-1.1802-2.3707
		c-0.125-0.8976,0.0461-1.8114,0.4874-2.6029l0.0377,0.0377c0.4705,0.4726,1.0302,0.847,1.6466,1.1014l0,0.5632
		c0.0032,0.6013,0.2435,1.177,0.6686,1.6022c0.4252,0.4252,1.0009,0.6655,1.6022,0.6687l0.5507-0.0018
		C8.3367,15.3482,8.7078,15.9009,9.175,16.3665z M7.532,13.8804c-0.3735-0.0015-0.7312-0.1505-0.9954-0.4146
		c-0.2641-0.2641-0.4131-0.6218-0.4145-0.9953l0.0018-0.296c0.3544,0.076,0.7156,0.1151,1.078,0.1166
		c0.1719,0,0.3438-0.009,0.5148-0.0269c-0.0179,0.171-0.0269,0.3428-0.0269,0.5148c0.0012,0.3699,0.0427,0.7387,0.1238,1.0995
		L7.532,13.8804z M9.8171,15.7243c-0.2906-0.2902-0.5371-0.6214-0.7318-0.9829l1.7937,0c-0.2286,0.4339-0.5315,0.8243-0.895,1.1534
		C9.9355,15.8391,9.8763,15.7835,9.8171,15.7243z M16.922,12.7844c0,0.7238-0.1884,1.435-0.5466,2.0639
		c-0.3582,0.6289-0.874,1.1537-1.4965,1.5229c-0.6226,0.3691-1.3305,0.5699-2.0541,0.5826
		c-0.7236,0.0127-1.4381-0.1631-2.0732-0.5103c0.4969-0.4769,0.8896-1.0516,1.1534-1.6878l0.5776,0
		c0.6013-0.0032,1.177-0.2435,1.6022-0.6687c0.4252-0.4252,0.6655-1.0009,0.6687-1.6022v-0.61
		c0.6169-0.2643,1.1744-0.6498,1.6394-1.1336c0.3505,0.6213,0.5352,1.3225,0.5363,2.0358L16.922,12.7844z M15.8549,9.9772
		c-0.3151,0.3485-0.6862,0.6419-1.0979,0.8682l0.0001-1.7328c0.3502,0.1931,0.6709,0.4353,0.9525,0.7193
		C15.758,9.8803,15.8064,9.9288,15.8549,9.9772z M13.8961,7.8319c-0.37-0.086-0.7485-0.1299-1.1283-0.131
		c-0.172,0-0.3438,0.0091-0.5148,0.0269c0.0568-0.5417,0.0235-1.089-0.0986-1.6198l0.3318-0.0018
		c0.3734,0.0015,0.7312,0.1505,0.9953,0.4146c0.2641,0.2641,0.4131,0.6218,0.4146,0.9953V7.8319z M16.9096,7.1718
		c0.0052,0.7182-0.1766,1.4254-0.5274,2.052c-0.0117-0.0134-0.0243-0.026-0.0377-0.0377c-0.459-0.4581-1.0015-0.8241-1.5983-1.078
		l0.0144-0.5812c-0.0032-0.6013-0.2434-1.1771-0.6686-1.6022c-0.4252-0.4252-1.001-0.6654-1.6023-0.6686l-0.6063,0
		c-0.2687-0.6334-0.6622-1.2062-1.1569-1.6843c0.6309-0.3494,1.3416-0.529,2.0627-0.5212c0.7212,0.0077,1.4279,0.2026,2.0511,0.5654
		c0.6232,0.3629,1.1415,0.8813,1.5043,1.5046C16.7073,5.744,16.9019,6.4507,16.9096,7.1718z"/>
	<path class="st0" d="M13.8853,10.5548l0-1.0762l0-0.7174c-0.6802-0.1849-1.3963-0.1935-2.0808-0.0252
		c0.2589,0.3702,0.3991,0.8102,0.4023,1.2618c0.0031,0.4517-0.1307,0.8936-0.3843,1.2674c0.3122,0.0727,0.6319,0.1082,0.9525,0.1058
		l-0.0035-0.0035c0.3791-0.0142,0.7546-0.0806,1.1157-0.1973L13.8853,10.5548z"/>
	<path class="st1" d="M5.2665,8.11l0-0.5919C5.2657,7.2196,5.3239,6.924,5.4378,6.6481C5.5517,6.3723,5.7189,6.1217,5.93,5.9106
		c0.211-0.211,0.4616-0.3782,0.7375-0.4922c0.2758-0.1138,0.5714-0.172,0.8698-0.1713l0.531,0.0036
		c0.2609-0.6383,0.6505-1.2159,1.1444-1.6969c-0.6131-0.3372-1.302-0.5125-2.0018-0.5094c-1.105,0.0002-2.1647,0.4393-2.9461,1.2207
		S3.0443,6.1062,3.044,7.2113C3.04,7.9306,3.2236,8.6385,3.5768,9.2651L3.636,9.2059C4.1034,8.7386,4.6571,8.3664,5.2665,8.11z"/>
	<path class="st2" d="M13.4762,13.4676c0.2641-0.2641,0.4131-0.6219,0.4145-0.9953l0-0.244l-0.0018-0.0843l-0.0305,0.0054
		c-0.3561,0.081-0.72,0.1236-1.0852,0.1273c-0.1695,0.0022-0.3388-0.0044-0.5077-0.0197c0.0186,0.1703,0.0282,0.3416,0.0287,0.513
		l-0.0035-0.0035c0.0013,0.3745-0.039,0.7482-0.1202,1.1138l0.3103,0.0018C12.8543,13.8807,13.2121,13.7317,13.4762,13.4676z"/>
	<path class="st0" d="M8.8916,13.8804l2.1148-0.0018l0.2296,0.0036c0.1002-0.361,0.1509-0.734,0.1507-1.1086
		c-0.0033-0.3223-0.0436-0.6431-0.1202-0.956c-0.3738,0.2642-0.82,0.4066-1.2778,0.4079c-0.4578,0.0013-0.9048-0.1386-1.2801-0.4008
		c-0.1607,0.6775-0.1471,1.3847,0.0394,2.0556H8.8916z"/>
	<path class="st2" d="M7.7723,6.1099L7.5338,6.1117c-0.1852-0.0003-0.3687,0.036-0.5399,0.1068
		C6.8227,6.2893,6.6672,6.3932,6.5362,6.5241C6.4053,6.6551,6.3014,6.8106,6.2306,6.9818C6.1599,7.153,6.1236,7.3364,6.1239,7.5216
		v0.3193c0.35-0.0772,0.7071-0.118,1.0655-0.122c0.1776,0.0054,0.3426,0.009,0.5166,0.0251
		C7.6855,7.5696,7.6753,7.3941,7.6754,7.2185C7.6752,6.8463,7.7155,6.4752,7.7956,6.1118L7.7723,6.1099z"/>
	<path class="st0" d="M6.1185,9.0516v2.1525v0.0287c0.6639,0.1814,1.3627,0.1932,2.0323,0.0341
		c-0.2533-0.3722-0.3879-0.8124-0.386-1.2627C7.7667,9.554,7.905,9.1149,8.1615,8.7449C7.846,8.6696,7.5227,8.6316,7.1983,8.632
		C6.833,8.6327,6.4693,8.6815,6.1167,8.7772L6.1185,9.0516z"/>
	<path class="st0" d="M10.9382,6.1045l-1.9875,0H8.7284C8.5396,6.7808,8.5279,7.4942,8.6943,8.1763
		C9.0678,7.912,9.5138,7.769,9.9715,7.7671c0.4577-0.0019,0.9048,0.1372,1.2806,0.3984c0.1617-0.6788,0.1469-1.3877-0.0431-2.0592
		L10.9382,6.1045z"/>
	<path class="st1" d="M5.9297,14.0727c-0.4252-0.4252-0.6655-1.0009-0.6687-1.6022v-0.5632
		c-0.6164-0.2543-1.1762-0.6287-1.6466-1.1014l-0.0377-0.0377c-0.4413,0.7916-0.6124,1.7054-0.4874,2.6029
		c0.125,0.8976,0.5394,1.7299,1.1802,2.3707c0.6408,0.6408,1.4731,1.0551,2.3707,1.1801c0.8976,0.125,1.8114-0.0461,2.6029-0.4874
		c-0.0233-0.0233-0.0448-0.0448-0.0682-0.0682c-0.4671-0.4655-0.8383-1.0183-1.0923-1.6269L7.532,14.7414
		C6.9306,14.7381,6.3549,14.4979,5.9297,14.0727z"/>
	<path class="st2" d="M12.4862,6.1064l-0.3318,0.0018c0.1222,0.5307,0.1555,1.0781,0.0987,1.6197
		c0.1711-0.0179,0.3429-0.0269,0.5148-0.0269c0.3798,0.001,0.7583,0.0449,1.1282,0.1309V7.5163
		c-0.0016-0.3735-0.1505-0.7312-0.4146-0.9954C13.2174,6.2569,12.8596,6.1079,12.4862,6.1064z"/>
	<path class="st1" d="M12.7893,3.0507c-0.7211-0.0078-1.4318,0.1718-2.0627,0.5212c0.4948,0.4781,0.8883,1.0509,1.157,1.6843
		l0.6062,0c0.6013,0.0032,1.1771,0.2434,1.6023,0.6686s0.6654,1.001,0.6686,1.6023l-0.0143,0.5812
		c0.5968,0.2539,1.1393,0.6198,1.5983,1.078c0.0133,0.0117,0.0259,0.0243,0.0377,0.0377c0.3507-0.6266,0.5325-1.3338,0.5274-2.052
		c-0.0076-0.7211-0.2023-1.4279-0.565-2.0512c-0.3627-0.6233-0.8811-1.1418-1.5042-1.5046
		C14.2171,3.2533,13.5104,3.0583,12.7893,3.0507z"/>
	<path class="st1" d="M14.7535,12.4849c-0.0032,0.6012-0.2435,1.177-0.6687,1.6022c-0.4252,0.4252-1.0009,0.6654-1.6022,0.6687
		H11.905c-0.2638,0.6362-0.6565,1.2109-1.1534,1.6878c0.6351,0.3472,1.3496,0.523,2.0732,0.5103s1.4316-0.2135,2.0541-0.5826
		c0.6225-0.3692,1.1382-0.894,1.4964-1.5229c0.3582-0.6289,0.5466-1.3401,0.5466-2.0639l0.0072-0.0073
		c-0.0011-0.7133-0.1858-1.4145-0.5363-2.0358c-0.465,0.4838-1.0226,0.8693-1.6395,1.1336V12.4849z"/>
	<path class="st2" d="M7.7167,12.2642c-0.171,0.018-0.3429,0.0269-0.5148,0.0269c-0.3624-0.0015-0.7237-0.0407-1.078-0.1166
		l-0.0018,0.296c0.0015,0.3735,0.1505,0.7312,0.4145,0.9953c0.2641,0.2641,0.6218,0.4131,0.9954,0.4146l0.2816-0.0018
		c-0.0811-0.3609-0.1226-0.7296-0.1237-1.0995C7.6897,12.6071,7.6988,12.4353,7.7167,12.2642z"/>
	<path class="st3" d="M5.2629,9.1216c0,0.1435,0,1.6466,0,1.7937c-0.1348,0-1.1462-0.7622-1.1462-0.8986
		C4.1167,9.8717,5.1281,9.1216,5.2629,9.1216z"/>
	<path class="st3" d="M10.8673,5.2454c-0.1435,0-1.6466,0-1.7937,0c0-0.1348,0.7622-1.1462,0.8986-1.1462
		C10.1172,4.0992,10.8673,5.1106,10.8673,5.2454z"/>
	<path class="st3" d="M9.0736,14.745c0.1435,0,1.6466,0,1.7937,0c0,0.1348-0.7622,1.1462-0.8986,1.1462
		C9.8237,15.8911,9.0736,14.8797,9.0736,14.745z"/>
	<path class="st3" d="M14.7328,10.8759c0-0.1435,0-1.6466,0-1.7937c0.1348,0,1.1462,0.7622,1.1462,0.8986
		C15.879,10.1258,14.8676,10.8759,14.7328,10.8759z"/>
	<circle class="st4" cx="9.9786" cy="10.0104" r="1.3946"/>
</g>
</svg>
