<?xml version="1.0" encoding="utf-8"?>
<!-- Generator: Adobe Illustrator 24.3.0, SVG Export Plug-In . SVG Version: 6.00 Build 0)  -->
<svg version="1.1" id="Layer_1" xmlns="http://www.w3.org/2000/svg" xmlns:xlink="http://www.w3.org/1999/xlink" x="0px" y="0px"
	 viewBox="0 0 20 20" style="enable-background:new 0 0 20 20;" xml:space="preserve">
<style type="text/css">
	.st0{fill:#8700E9;}
	.st1{fill:#333333;}
	.st2{fill:#FFFFFF;}
</style>
<path d="M16.711,1H3.185C2.5607,1,2.0405,1.1952,1.6243,1.6117S1,2.6529,1,3.1735v13.6399c0,0.6247,0.2081,1.1453,0.6243,1.5618
	S2.5607,19,3.185,19H16.815c0.6243,0,1.1445-0.2082,1.5607-0.6247C18.7919,17.9588,19,17.3341,19,16.8134V3.2777
	c0-0.6247-0.2081-1.1453-0.6243-1.5618C17.8555,1.1952,17.3353,1,16.711,1z"/>
<path class="st0" d="M15.9653,2H3.9422C3.3873,2,2.9249,2.1735,2.5549,2.5437S2,3.4693,2,3.932v12.1244
	c0,0.5553,0.185,1.0181,0.5549,1.3883S3.3873,18,3.9422,18h12.1156c0.5549,0,1.0173-0.1851,1.3873-0.5553
	C17.815,17.0745,18,16.5192,18,16.0564V4.0246c0-0.5553-0.185-1.0181-0.5549-1.3883C16.9827,2.1735,16.5202,2,15.9653,2z"/>
<polygon class="st1" points="11,2 18,9 18,11 11,18 9,18 2,11 2,9 9,2 "/>
<path class="st2" d="M10,3L6.6875,6.3125L10,9.625l3.3125-3.3125L10,3z"/>
<rect x="11.3452" y="7.6577" transform="matrix(0.7071 -0.7071 0.7071 0.7071 -3.0621 12.6075)" width="4.6846" height="4.6846"/>
<polygon points="6.3125,13.3156 3,10.0031 6.3125,6.6906 9.625,10.0031 6.3125,13.3156 "/>
<path class="st2" d="M10,10.375l-3.3125,3.3125L10,17l3.3125-3.3125L10,10.375z"/>
</svg>
