<?xml version="1.0" encoding="utf-8"?>
<!-- Generator: Adobe Illustrator 24.3.0, SVG Export Plug-In . SVG Version: 6.00 Build 0)  -->
<svg version="1.1" id="Layer_1" xmlns="http://www.w3.org/2000/svg" xmlns:xlink="http://www.w3.org/1999/xlink" x="0px" y="0px"
	 viewBox="0 0 20 20" style="enable-background:new 0 0 20 20;" xml:space="preserve">
<style type="text/css">
	.st0{fill:#0C3953;}
	.st1{fill:#0079BF;}
	.st2{fill:#5BA4CF;}
	.st3{fill:#8BBDD9;}
	.st4{fill:none;stroke:#000000;stroke-width:0.5;stroke-miterlimit:10;}
	.st5{fill:#FFFFFF;stroke:#000000;stroke-width:0.75;stroke-miterlimit:10;}
</style>
<g>
	<polygon class="st0" points="10,10.4225 10,14.9225 13.905,18.5312 10,10.4225 	"/>
</g>
<g>
	<polygon class="st0" points="10,10.4225 1.2256,12.4252 6.4818,13.2282 10,10.4225 	"/>
</g>
<g>
	<polygon class="st0" points="10,10.4225 13.5182,13.2282 18.7744,12.4252 10,10.4225 	"/>
</g>
<g>
	<polygon class="st1" points="6.4818,13.2282 6.095,18.5312 10,10.4225 	"/>
</g>
<g>
	<polygon class="st1" points="2.9635,4.8111 5.6129,9.4211 10,10.4225 	"/>
</g>
<g>
	<polygon class="st1" points="14.3871,9.4211 17.0365,4.8111 10,10.4225 	"/>
</g>
<g>
	<polygon class="st1" points="10,1.4225 8.0475,6.3682 10,10.4225 	"/>
</g>
<g>
	<polygon class="st2" points="10,10.4225 13.905,18.5312 13.5182,13.2282 	"/>
</g>
<g>
	<polygon class="st2" points="10,10.4225 10,10.4225 5.6129,9.4211 1.2256,12.4252 10,10.4225 	"/>
</g>
<g>
	<polygon class="st2" points="10,10.4225 10,10.4225 17.0365,4.8111 11.9525,6.3682 10,10.4225 	"/>
</g>
<g>
	<polygon class="st3" points="10,10.4225 6.095,18.5312 10,14.9225 10,10.4225 	"/>
</g>
<g>
	<polygon class="st3" points="10,10.4225 10,10.4225 18.7744,12.4252 14.3871,9.4211 10,10.4225 	"/>
</g>
<g>
	<polygon class="st3" points="10,10.4225 10,10.4225 8.0475,6.3682 2.9635,4.8111 10,10.4225 	"/>
</g>
<g>
	<polygon class="st3" points="11.9525,6.3682 10,1.4225 10,10.4225 	"/>
</g>
<line class="st4" x1="10" y1="3.3282" x2="10" y2="14.4558"/>
<line class="st4" x1="16.2188" y1="5.4688" x2="6.6875" y2="13.0625"/>
<line class="st4" x1="4.0625" y1="5.6875" x2="13.5182" y2="13.2282"/>
<line class="st4" x1="2.7188" y1="12.0844" x2="14.3872" y2="9.4212"/>
<line class="st4" x1="6.9375" y1="16.7819" x2="11.9525" y2="6.3682"/>
<line class="st4" x1="17.1851" y1="12.0625" x2="5.6128" y2="9.4212"/>
<line class="st4" x1="13.2729" y1="17.2188" x2="8.0475" y2="6.3682"/>
<g>
	<path d="M10,3.465l1.2549,3.1786l0.2545,0.6447l0.6627-0.203l3.2675-1.0007l-1.7027,2.9629l-0.3454,0.6009l0.5719,0.3916
		l2.8197,1.9307l-3.3781,0.5161l-0.6852,0.1047l0.0504,0.6913l0.2485,3.4083l-2.5097-2.3194L10,13.9013l-0.509,0.4704
		l-2.5097,2.3194l0.2485-3.4083l0.0504-0.6913L6.595,12.4868l-3.3781-0.5161L6.0366,10.04l0.5719-0.3916L6.2631,9.0475
		L4.5604,6.0846l3.2675,1.0007l0.6627,0.203l0.2545-0.6447L10,3.465 M10,1.4225L8.0475,6.3682l-5.084-1.5571l2.6493,4.6101
		l-4.3872,3.004l5.2561,0.803l-0.3867,5.303L10,14.9225l3.905,3.6087l-0.3867-5.303l5.2561-0.803l-4.3872-3.004l2.6493-4.6101
		l-5.084,1.5571L10,1.4225L10,1.4225z M17.0365,4.8111h0.005H17.0365z"/>
</g>
<circle class="st5" cx="10.0082" cy="10.4396" r="1.3858"/>
</svg>
