<svg id="Layer_1" data-name="Layer 1" xmlns="http://www.w3.org/2000/svg" viewBox="0 0 260 260"><defs><style>.cls-1{fill:#4083fb;}.cls-2{fill:#4052fb;}</style></defs><path class="cls-1" d="M50,259A49.05,49.05,0,0,1,1,210V50a49,49,0,0,1,98,0V210A49.05,49.05,0,0,1,50,259Z"/><path class="cls-2" d="M50,2A48.05,48.05,0,0,1,98,50V210a48,48,0,0,1-96,0V50A48.05,48.05,0,0,1,50,2m0-2h0A50,50,0,0,0,0,50V210a50,50,0,0,0,50,50h0a50,50,0,0,0,50-50V50A50,50,0,0,0,50,0Z"/><path class="cls-1" d="M210,259a49.05,49.05,0,0,1-49-49V50a49,49,0,0,1,98,0V210A49.05,49.05,0,0,1,210,259Z"/><path class="cls-2" d="M210,2a48.05,48.05,0,0,1,48,48V210a48,48,0,0,1-96,0V50A48.05,48.05,0,0,1,210,2m0-2h0a50,50,0,0,0-50,50V210a50,50,0,0,0,50,50h0a50,50,0,0,0,50-50V50A50,50,0,0,0,210,0Z"/></svg>