<?xml version="1.0" encoding="utf-8"?>
<!-- Generator: Adobe Illustrator 25.0.1, SVG Export Plug-In . SVG Version: 6.00 Build 0)  -->
<svg version="1.1" id="Layer_1" xmlns="http://www.w3.org/2000/svg" xmlns:xlink="http://www.w3.org/1999/xlink" x="0px" y="0px"
	 viewBox="0 0 97 97" style="enable-background:new 0 0 97 97;" xml:space="preserve">
<style type="text/css">
	.st0{fill:#FFFFFF;stroke:#4083FB;stroke-width:3;stroke-miterlimit:10;}
	.st1{display:none;fill:#4083FB;}
	.st2{fill:#4083FB;}
	.st3{fill:#183167;}
	.st4{display:none;}
	.st5{display:inline;fill:#FFFFFF;}
	.st6{display:inline;fill:#4083FB;}
	.st7{fill:#FFFFFF;}
</style>
<path class="st0" d="M2.5,2.5h92v92h-92V2.5z"/>
<polyline class="st1" points="92,5 92,92 5,92 5,5 92,5 "/>
<rect class="st1" width="97" height="97"/>
<rect x="5" y="5" class="st2" width="21" height="21"/>
<rect x="27" y="5" class="st2" width="21" height="21"/>
<rect x="49" y="5" class="st2" width="21" height="21"/>
<rect x="71" y="5" class="st3" width="21" height="21"/>
<rect x="5" y="27" class="st2" width="21" height="21"/>
<rect x="27" y="27" class="st2" width="21" height="21"/>
<rect x="49" y="27" class="st2" width="21" height="21"/>
<rect x="71" y="27" class="st2" width="21" height="21"/>
<rect x="5" y="49" class="st2" width="21" height="21"/>
<rect x="27" y="49" class="st2" width="21" height="21"/>
<rect x="49" y="49" class="st2" width="21" height="21"/>
<rect x="71" y="49" class="st2" width="21" height="21"/>
<rect x="5" y="71" class="st3" width="21" height="21"/>
<rect x="27" y="71" class="st2" width="21" height="21"/>
<rect x="49" y="71" class="st2" width="21" height="21"/>
<rect x="71" y="71" class="st2" width="21" height="21"/>
<rect x="27" y="27" class="st3" width="43" height="43"/>
<g class="st4">
	<polygon class="st5" points="44.1,56.1 33.3,57.3 39.7,48.5 33.3,39.7 44.1,40.9 48.5,31 52.9,40.9 63.7,39.7 57.3,48.5 63.7,57.3 
		52.9,56.1 48.5,66 	"/>
	<path class="st6" d="M48.5,33.5l3.2,7.2l0.6,1.3l1.5-0.2l7.8-0.8L57,47.3l-1,1.2l0.9,1.2l4.6,6.3l-7.8-0.8L52.3,55l-0.6,1.3
		l-3.2,7.2l-3.2-7.2L44.7,55l-1.5,0.2L35.5,56l4.6-6.3l0.9-1.2l-0.9-1.2L35.5,41l7.8,0.8l1.5,0.2l0.6-1.3L48.5,33.5 M48.5,28.5
		l-5,11.3l-12.3-1.3l7.3,10l-7.3,10l12.3-1.3l5,11.3l5-11.3l12.3,1.3l-7.3-10l7.3-10l-12.3,1.3L48.5,28.5L48.5,28.5z"/>
</g>
<g>
	<polygon class="st7" points="45.2,56.4 36.5,60.5 40.6,51.8 31.5,48.5 40.6,45.2 36.5,36.5 45.2,40.6 48.5,31.5 51.8,40.6 
		60.5,36.5 56.4,45.2 65.5,48.5 56.4,51.8 60.5,60.5 51.8,56.4 48.5,65.5 	"/>
	<path class="st2" d="M48.5,34.5l1.9,5.5l0.7,2.1l2-1l5.2-2.5l-2.5,5.2l-1,2l2.1,0.7l5.5,1.9l-5.5,1.9L55,51.2l1,2l2.5,5.2l-5.2-2.5
		l-2-1L50.6,57l-1.9,5.5L46.8,57l-1-2l-2,1l-5.2,2.5l2.5-5.2l1-2L40,50.6l-5.5-1.9l5.5-1.9l2.1-0.7l-1-2l-2.5-5.2l5.2,2.5l2,1
		l0.7-2.1L48.5,34.5 M48.5,28.5l-3.8,10.8l-10.3-4.9l4.9,10.3l-10.8,3.8l10.8,3.8l-4.9,10.3l10.3-4.9l3.8,10.8l3.8-10.8l10.3,4.9
		l-4.9-10.3l10.8-3.8l-10.8-3.8l4.9-10.3l-10.3,4.9L48.5,28.5L48.5,28.5z"/>
</g>
</svg>
