<?xml version="1.0" encoding="utf-8"?>
<!-- Generator: Adobe Illustrator 25.0.1, SVG Export Plug-In . SVG Version: 6.00 Build 0)  -->
<svg version="1.1" id="Layer_1" xmlns="http://www.w3.org/2000/svg" xmlns:xlink="http://www.w3.org/1999/xlink" x="0px" y="0px"
	 viewBox="0 0 97 97" style="enable-background:new 0 0 97 97;" xml:space="preserve">
<style type="text/css">
	.st0{fill:#797987;}
	.st1{fill:#FFFFFF;}
</style>
<path class="st0" d="M2.5,2.5h92v92h-92V2.5z"/>
<path d="M92,5v87H5V5H92 M97,0H0v97h97V0z"/>
<path class="st1" d="M5,5h21v21H5V5z M27,5h21v21H27V5z M49,5h21v21H49V5z"/>
<path d="M71,5h21v21H71V5z"/>
<path class="st1" d="M5,27h21v21H5V27z"/>
<path d="M27,27h21v21H27V27z"/>
<path class="st1" d="M49,27h21v21H49V27z M71,27h21v21H71V27z M5,49h21v21H5V49z M27,49h21v21H27V49z"/>
<path d="M49,49h21v21H49V49z"/>
<path class="st1" d="M71,49h21v21H71V49z"/>
<path d="M5,71h21v21H5V71z"/>
<path class="st1" d="M27,71h21v21H27V71z M49,71h21v21H49V71z M71,71h21v21H71V71z"/>
</svg>
