<svg width="20" height="20" viewBox="0 0 20 20" fill="none" xmlns="http://www.w3.org/2000/svg">
<path d="M2.28406 3.46888V6.75196H6.80157V2.28406H3.46888C3.15465 2.28406 2.85328 2.40889 2.63108 2.63108C2.40889 2.85328 2.28406 3.15465 2.28406 3.46888Z" fill="white"/>
<path d="M13.2101 17.7159H16.5311C16.6075 17.7149 16.6837 17.7071 16.7587 17.6925C16.9852 17.6444 17.1929 17.5319 17.357 17.3686C17.5787 17.1462 17.7035 16.8451 17.7042 16.5311V13.2013H13.2101V17.7159Z" fill="white"/>
<path d="M12.2967 13.2013H7.7179V17.7159H12.2967V13.2013Z" fill="white"/>
<path d="M17.713 7.66833H13.2101V12.2471H17.713V7.66833Z" fill="white"/>
<path d="M12.2967 2.28406H7.7179V6.75196H12.2967V2.28406Z" fill="white"/>
<path d="M6.80157 7.66833H2.28406V12.2471H6.80157V7.66833Z" fill="white"/>
<path d="M18.2821 2.2228C18.1962 2.10685 18.0984 2.00024 17.9903 1.9047C17.6251 1.55876 17.1499 1.35217 16.6479 1.32104C16.6041 1.32104 16.5632 1.32104 16.5195 1.32104H3.46888C3.42511 1.32104 3.38425 1.32104 3.34048 1.32104C2.79284 1.35235 2.27793 1.59199 1.90135 1.99082C1.52476 2.38965 1.31504 2.91746 1.31519 3.46599V16.5341C1.31596 17.1043 1.5428 17.6509 1.94599 18.0541C2.34917 18.4572 2.89578 18.6841 3.46596 18.6849H16.5341C17.1045 18.6833 17.6511 18.4558 18.0542 18.0522C18.4573 17.6485 18.6841 17.1016 18.6848 16.5312V3.4689C18.6838 3.02171 18.543 2.58603 18.2821 2.2228ZM6.80157 12.2442H2.28406V7.66832H6.80157V12.2442ZM6.80157 6.75198H2.28406V3.4689C2.28406 3.15467 2.40889 2.85331 2.63108 2.63111C2.85328 2.40891 3.15465 2.28408 3.46888 2.28408H6.80157V6.75198ZM12.2967 17.716H7.71207V13.2014H12.2967V17.716ZM12.2967 6.75198H7.71207V2.28408H12.2967V6.75198ZM17.716 16.5312C17.7152 16.8452 17.5904 17.1463 17.3687 17.3687C17.2014 17.534 16.9894 17.6466 16.7588 17.6926C16.6799 17.7079 16.5998 17.7157 16.5195 17.716H13.2101V13.2014H17.716V16.5312ZM17.716 12.2442H13.2101V7.66832H17.716V12.2442Z" fill="black"/>
</svg>
