<svg id="Layer_3" data-name="Layer 3" xmlns="http://www.w3.org/2000/svg" viewBox="0 0 260 259.9"><defs><style>.cls-1{fill:#4083fb;}.cls-2{fill:#4052fb;}</style></defs><path class="cls-1" d="M148.06,258.45A110.52,110.52,0,0,1,37.68,149.06H78.83a68.23,68.23,0,1,0,68.23-69.23H101v36.4L1.45,58.75,101,1.28v36.4h47.06a110.39,110.39,0,1,1,0,220.77Z" transform="translate(0.55 0.45)"/><path class="cls-2" d="M100,3V38.68h48.06A109.38,109.38,0,1,1,38.7,150.06H77.86a69.23,69.23,0,1,0,69.2-71.23H100V114.5L3.45,58.75,100,3m2-3.46L-.55,58.75,102,118V80.83h45.06a67.24,67.24,0,1,1-67.23,67.23H36.68A111.39,111.39,0,1,0,148.06,36.68H102V-.45Z" transform="translate(0.55 0.45)"/></svg>