<?xml version="1.0" encoding="utf-8"?>
<!-- Generator: Adobe Illustrator 24.3.0, SVG Export Plug-In . SVG Version: 6.00 Build 0)  -->
<svg version="1.1" id="Layer_1" xmlns="http://www.w3.org/2000/svg" xmlns:xlink="http://www.w3.org/1999/xlink" x="0px" y="0px"
	 viewBox="0 0 20 20" style="enable-background:new 0 0 20 20;" xml:space="preserve">
<style type="text/css">
	.st0{fill:#5C5F32;}
	.st1{fill:#896332;}
	.st2{fill:#5C7E32;}
</style>
<path class="st0" d="M6.6034,2.3002L2.7216,5.2523v8.5019l4.6659-11.454H6.6034z"/>
<path class="st0" d="M17.6101,17.5844V9.5l-7.3332,8.0844H17.6101z"/>
<path class="st1" d="M17.6102,8.6238V2.3002h-3.0156L12,11L17.6102,8.6238z"/>
<path class="st1" d="M2.7216,15.2148v2.3696H9.66l2.1411-6.6332L2.7216,15.2148z"/>
<path class="st2" d="M14.5945,2.3002H7.3874l-4.6659,11.454v1.4606l9.0795-4.2636L14.5945,2.3002z"/>
<path d="M18.5449,8.5253c-0.0668-0.0661-0.1489-0.1137-0.2386-0.1383c-0.0897-0.0246-0.1839-0.0254-0.274-0.0024V1.8781h-2.8785
	c0.0111-0.1033-0.0154-0.2071-0.0743-0.2916c-0.0588-0.0845-0.146-0.1438-0.2448-0.1664c-0.0988-0.0227-0.2022-0.0071-0.2905,0.0437
	c-0.0883,0.0508-0.1553,0.1332-0.1881,0.2314l-0.0603,0.1829H7.9604c0.0002-0.0834-0.0177-0.1658-0.0523-0.2412
	c-0.0346-0.0754-0.0851-0.142-0.1479-0.195C7.6638,1.3571,7.5416,1.3093,7.4146,1.3068C7.2876,1.3042,7.1637,1.347,7.064,1.4278
	L6.4828,1.8781H2.3104v3.1604L1.4633,5.683C1.4168,5.7146,1.3771,5.7556,1.3465,5.8034c-0.0306,0.0479-0.0513,0.1016-0.0611,0.158
	C1.2757,6.0178,1.2773,6.0757,1.2901,6.1314c0.0127,0.0557,0.0364,0.1082,0.0695,0.1543c0.0331,0.0461,0.075,0.0847,0.1232,0.1136
	c0.0481,0.0289,0.1015,0.0475,0.1569,0.0545C1.695,6.4609,1.7512,6.4563,1.8047,6.4404c0.0536-0.0159,0.1034-0.0429,0.1465-0.0792
	l0.3591-0.2814v7.5844l-0.5483,1.3396c-0.0515,0.1041-0.0702,0.222-0.0535,0.3375c0.0167,0.1154,0.068,0.2227,0.1467,0.3069
	c0.0571,0.0632,0.1277,0.112,0.2061,0.1427c0.0784,0.0308,0.1627,0.0426,0.2463,0.0346v2.1755h6.7822l-0.0164,0.0506v0.0704
	c-0.0105,0.1277,0.0217,0.2554,0.0915,0.3618c0.0697,0.1063,0.1728,0.1851,0.292,0.2232c0.1193,0.038,0.2476,0.0332,0.3638-0.0139
	c0.1162-0.047,0.2133-0.1333,0.2752-0.2447l0.4002-0.4334h7.5251V9.8875l0.6031-0.6501l0.0302-0.076
	c0.0475-0.1048,0.0625-0.222,0.0429-0.3358C18.6779,8.7118,18.6246,8.607,18.5449,8.5253L18.5449,8.5253z M17.2099,8.7167
	l-4.9071,2.0544l2.5988-8.0487h2.3083V8.7167z M17.0947,9.6764l-6.8206,7.3452l1.6915-5.1979L17.0947,9.6764z M11.2912,11.1905
	l-8.1584,3.4136v-0.7654L7.6616,2.7223h6.3628L11.2912,11.1905z M3.1328,2.7223h2.2233L3.1328,4.4109V2.7223z M3.1328,5.4634
	l3.6049-2.7411h0.0329L3.1328,11.652V5.4634z M3.1328,17.1623V15.516l7.8185-3.2589l-1.59,4.9052H3.1328z M17.1989,17.1623h-5.9214
	l5.9214-6.3855V17.1623z"/>
</svg>
