<?xml version="1.0" encoding="utf-8"?>
<!-- Generator: Adobe Illustrator 24.1.0, SVG Export Plug-In . SVG Version: 6.00 Build 0)  -->
<svg version="1.1" id="Layer_1" xmlns="http://www.w3.org/2000/svg" xmlns:xlink="http://www.w3.org/1999/xlink" x="0px" y="0px"
	 width="20px" height="20px" viewBox="0 0 20 20" style="enable-background:new 0 0 20 20;" xml:space="preserve">
<style type="text/css">
	.st0{fill:#54E984;}
	.st1{fill:#47A590;}
	.st2{fill:#B5DD35;}
</style>
<g>
	<path d="M17.4888,6.360312c-0.6945-0.6914601-1.5763998-1.1641703-2.5367002-1.3596802
		c-0.2452002-1.1377602-0.8741999-2.1566103-1.7813997-2.8857002c-0.9073-0.7290899-2.0376005-1.124074-3.2014904-1.118722
		C8.8053398,1.0015616,7.67869,1.4069316,6.7782001,2.1443317S5.2581401,3.9063218,5.0233898,5.0462918
		C3.8845601,5.2863321,2.86289,5.9106221,2.1296899,6.8144817C1.39649,7.7183318,0.996338,8.8467922,0.996338,10.010602
		c0,1.1639004,0.400152,2.2923002,1.1333519,3.1962004c0.7332001,0.9038992,1.7548702,1.5281,2.8936999,1.7681999
		c0.24051,1.1430988,0.8681402,2.1681995,1.7769003,2.9021988c0.9087601,0.7340012,2.0429802,1.1319008,3.2111101,1.1266003
		c1.1681995-0.0053997,2.2986994-0.4137001,3.2006998-1.1560001c0.9019003-0.7423,1.5200996-1.7731991,1.7501001-2.918499
		c0.8972998-0.1871004,1.7271004-0.6138,2.4013004-1.2347002s1.1675987-1.4129,1.4277992-2.2917004
		c0.2600994-0.8788996,0.277401-1.81182,0.0498009-2.6996899c-0.2275009-0.8878698-0.6913013-1.6975098-1.3422012-2.3428998H17.4888
		z M13.9729004,7.2557721L12.7046003,5.987412c0.4692001-0.1451702,0.9603996-0.2061501,1.4509993-0.1801
		C14.1799002,6.297102,14.1181002,6.7873521,13.9729004,7.2557721z M7.9685102,13.4555016l-1.4966602-1.4940996l-0.10147-0.1014996
		C6.7128401,11.253602,7.20331,10.7439022,7.79601,10.3785019c0.08004,0.4506998,0.2971601,0.8656998,0.6217499,1.1885004
		c0.3245897,0.3227997,0.7408504,0.5375996,1.1920004,0.6150999c-0.1671505,0.2754993-0.3654804,0.5307999-0.5910501,0.7609997
		c-0.26474,0.2650003-0.5642805,0.4928999-0.8903904,0.6773005L7.9685102,13.4555016z M9.9725103,6.7839417
		C9.8608999,6.6495018,9.7467499,6.530272,9.62498,6.4009018c-0.2561998-0.2506599-0.53757-0.4742298-0.8396502-0.66716
		l0.22577-0.22576c0.1307802-0.1311598,0.28617-0.23522,0.4572401-0.3062201
		C9.63941,5.1307521,9.8228102,5.0942121,10.0080004,5.0942121c0.1851997,0,0.3685999,0.03654,0.5396996,0.1075497
		c0.1710997,0.0710001,0.3264999,0.1750603,0.4573002,0.3062201l0.1698999,0.1674199l0.0151997,0.0177503
		c-0.3135996,0.2003698-0.6044998,0.4342799-0.8674994,0.6975999C10.1983004,6.514842,10.0813999,6.646132,9.9725103,6.7839417z
		 M11.3652,9.987812c0.0004997,0.2724895-0.0798998,0.5390902-0.2308998,0.7659903
		c-0.1511002,0.2268-0.3660002,0.4038-0.6177006,0.5084c-0.2515993,0.1046-0.5286694,0.1322994-0.79603,0.0794001
		c-0.2673597-0.0528002-0.5130396-0.1838007-0.7059298-0.3764c-0.1928902-0.1925001-0.3243303-0.4379005-0.3776903-0.7052002
		C8.5836,9.9927416,8.6107302,9.7156515,8.7149096,9.4638119C8.8190899,9.2119722,8.9956398,8.9967022,9.2222099,8.845232
		S9.7152004,8.6129122,9.98773,8.6129122c0.3648701,0,0.7148695,0.1447802,0.9730701,0.4025497
		C11.2191,9.2732315,11.3645,9.6229315,11.3652,9.987812z M8.9857302,7.0528321
		C9.2153101,7.282032,9.4171,7.5374618,9.5869303,7.8138518C9.1439199,7.8941321,8.7356396,8.1067915,8.4159298,8.4237919
		C8.0962095,8.7407923,7.8800702,9.1472416,7.79601,9.5895519c-0.5859699-0.3609695-1.0718298-0.86341-1.41295-1.4611502
		l0.0202999-0.0202894L7.9253898,6.586082l0.1927905-0.1953301C8.4351597,6.572422,8.7268496,6.795022,8.9857302,7.0528321z
		 M9.6630402,13.5823021c0.12082-0.1215,0.2351303-0.2494001,0.3424597-0.3830004
		c0.1085005,0.1302004,0.2236004,0.2546005,0.3450003,0.3729c0.2608995,0.2556,0.5482998,0.4827003,0.8573999,0.6773005
		l0.0254002,0.0177002l-0.0584002,0.0608997l-0.1724997,0.1724997c-0.2651005,0.2630997-0.6234007,0.4106998-0.9969006,0.4106998
		c-0.3734798,0-0.7318096-0.1476002-0.9969397-0.4106998L8.79041,14.2799015
		c0.3160095-0.2010994,0.6086798-0.4368,0.8726301-0.7025995V13.5823021z M10.9923,12.9329023
		c-0.2284002-0.2249002-0.4294004-0.4761-0.5986996-0.7483006c0.4435997-0.085,0.8507996-0.3028002,1.1678991-0.6244001
		c0.3171005-0.3216,0.5291004-0.7318993,0.6078005-1.1766996c0.6029997,0.3649998,1.1033001,0.8773994,1.4534998,1.4890995
		l-0.5072994,0.5073004l-0.7610006,0.7609997l-0.4337997,0.4364004c-0.3378-0.1728001-0.6503-0.3913002-0.9284-0.6493998V12.9329023
		z M12.1820002,9.5895519c-0.0810003-0.4504499-0.2988005-0.8650103-0.6238003-1.1872702s-0.7413998-0.5365801-1.1925001-0.6138
		c0.3647003-0.5999398,0.8774004-1.0960999,1.4891005-1.4408498l0.1571999,0.15727l1.4054003,1.4053402l0.1901999,0.19279
		C13.2671003,8.7121315,12.7763004,9.2238817,12.1820002,9.5895519z M7.0527601,3.1107817
		c0.7815599-0.7811899,1.8413601-1.2200201,2.9463902-1.2200201c1.1050501,0,2.1648493,0.4388301,2.9463501,1.2200201
		c0.4969997,0.49261,0.8601999,1.1037402,1.0552998,1.7757001c-0.6893997-0.00913-1.3733006,0.1238503-2.0091,0.3906503
		l-0.3729-0.3779702c-0.2104998-0.2115297-0.4607-0.3793898-0.7362003-0.4939299
		c-0.2755995-0.1145401-0.5711002-0.1735001-0.8695002-0.1735001c-0.29842,0-0.5938997,0.05896-0.8694601,0.1735001
		C8.8680696,4.5197721,8.6178598,4.6876321,8.4073601,4.8991618l-0.41856,0.41856
		C7.3766699,5.068192,6.72194,4.9398317,6.0609002,4.9397521H5.97719C6.1705198,4.246922,6.5412502,3.6165116,7.0527601,3.1107817z
		 M5.8275199,5.852972c0.4878302-0.0260701,0.9764299,0.03404,1.4433899,0.1775699L6.0025601,7.298892
		C5.87957,6.8986421,5.8171501,6.4822421,5.81738,6.0635219C5.8224502,5.987412,5.8249898,5.9189219,5.8275199,5.852972z
		 M4.91431,13.9197016c0,0.033,0,0.0634003,0,0.0964003c-0.8717399-0.2475996-1.6389301-0.7727995-2.1852-1.4959002
		c-0.5462799-0.7230997-0.84183-1.6046-0.84183-2.5107994c0-0.9062605,0.2955501-1.7877703,0.84183-2.5108504
		c0.5462699-0.7230701,1.3134601-1.24827,2.1852-1.4959197V6.055902C4.9127598,6.7227721,5.0438299,7.3832817,5.29989,7.999032
		L4.9016199,8.3972921c-0.4228997,0.4274302-0.66011,1.0044498-0.66011,1.60571c0,0.6012993,0.2372103,1.1782999,0.66011,1.6057997
		l0.3906603,0.3880997C5.0415802,12.6069021,4.9131598,13.2602015,4.91431,13.9197016z M5.5104399,11.0000019
		c-0.2630401-0.2651997-0.4106398-0.6234999-0.4106398-0.9969997c0-0.3734398,0.1475997-0.7317705,0.4106398-0.9969006
		l0.2105403-0.2080097C5.91782,9.1023817,6.1456499,9.3854723,6.4008198,9.6428223
		C6.5224199,9.7643919,6.65028,9.8795519,6.7838602,9.987812c-0.1335802,0.1082897-0.2614403,0.2233896-0.3830404,0.3449898
		C6.14007,10.5952015,5.9087,10.8853016,5.7108302,11.1978016L5.5104399,11.0000019z M5.8224502,13.9197016
		C5.8221998,13.5090017,5.88202,13.100502,6.00002,12.707202l1.2683601,1.2683001
		C6.7999601,14.1207018,6.3097,14.1825018,5.81991,14.1582022C5.8249898,14.0846024,5.8224502,14.0034018,5.8224502,13.9197016z
		 M12.9252005,16.8648014c-0.5118008,0.5118008-1.1479006,0.8815002-1.8459005,1.0729008s-1.4337997,0.1977997-2.1350298,0.0186996
		c-0.70123-0.1791992-1.34377-0.5377998-1.86444-1.0405006c-0.5206699-0.5026989-0.9015403-1.1321993-1.1051803-1.8267994
		c0.6886001,0.0141001,1.3726501-0.1146002,2.0090799-0.3779001l0.4084105,0.4084005
		c0.4274292,0.4228992,1.0044498,0.6601,1.6057396,0.6601c0.6013203,0,1.1783199-0.2372007,1.6057196-0.6601l0.4313002-0.4313002
		c0.6231003,0.2493,1.2898998,0.3710003,1.9608002,0.3576994c-0.1914997,0.6872005-0.5566998,1.3136005-1.0602999,1.8188H12.9252005
		z M14.1555996,14.1252022c-0.4691992,0.0235996-0.9390993-0.0313005-1.3901997-0.1624002l1.2252998-1.2251997
		c0.1111002,0.3842001,0.1666002,0.7821999,0.1648998,1.1820993C14.1555996,13.9882021,14.1555996,14.0567017,14.1555996,14.1252022
		z M14.2875004,11.2232018c-0.2007999-0.3224001-0.4374008-0.6210995-0.7052002-0.8903999
		c-0.1216002-0.1216002-0.2495003-0.2367001-0.3831005-0.3449898c0.4232006-0.3428202,0.7867002-0.7534103,1.0756006-1.2150898
		l0.2358999,0.2333794c0.2629995,0.26513,0.4105997,0.6234608,0.4105997,0.9969006
		c0,0.3734999-0.1476002,0.7318001-0.4105997,0.9969997L14.2875004,11.2232018z M16.8850994,12.8873014
		c-0.5042,0.5115004-1.1327991,0.8830004-1.8238993,1.0781002c0.0011997-0.0177994,0.0011997-0.0355997,0-0.0532999
		c-0.0005999-0.6484995-0.1254005-1.2909002-0.3678999-1.8923998l0.4210997-0.4007998
		C15.5373001,11.1915016,15.7746,10.614502,15.7746,10.0132017c0-0.6013098-0.2372999-1.1783295-0.6602001-1.6057596
		l-0.4286995-0.42871c0.2578993-0.6378803,0.3846998-1.3211403,0.3729-2.0090704
		C15.7517996,6.1687121,16.3813,6.544302,16.8857002,7.0596819c0.5044994,0.5153799,0.8663998,1.1528902,1.050499,1.8501396
		c0.1841011,0.6972504,0.184,1.4303808-0.0001984,2.1275806C17.7516994,11.734602,17.3896008,12.3720016,16.8850994,12.8873014z"/>
	<path class="st0" d="M12.3544922,13.1409302l0.7609863-0.7610474l0.5073242-0.5072632
		c-0.3502197-0.6116943-0.8505249-1.1241455-1.4534912-1.4891357c-0.0787354,0.4448242-0.2907104,0.8551025-0.6077881,1.1766968
		c-0.3171387,0.3215942-0.7243042,0.5394287-1.1679077,0.6244507c0.1693115,0.2721558,0.3703003,0.5233765,0.5986938,0.748291
		v-0.0050049c0.2780762,0.2580566,0.5905762,0.4765625,0.9284058,0.6494141L12.3544922,13.1409302z"/>
	<path class="st1" d="M7.9888306,5.317749l0.4185181-0.4185791C8.6178589,4.6876221,8.868042,4.5197754,9.1436157,4.4052124
		c0.2755737-0.114502,0.5710449-0.1734619,0.8695068-0.1734619c0.2984009,0,0.5938721,0.05896,0.8695068,0.1734619
		c0.2754517,0.114563,0.5256958,0.2824097,0.736145,0.4939575l0.3729248,0.3779907
		c0.6358032-0.2668457,1.3197021-0.3997803,2.0090942-0.390686c-0.1950684-0.671936-0.5582886-1.2830811-1.0552979-1.7756958
		c-0.7814941-0.781189-1.8413086-1.2200317-2.9463501-1.2200317S7.8343506,2.3295898,7.0527344,3.1107788
		C6.5412598,3.6165161,6.1705322,4.2469482,5.9771729,4.9397583h0.0837402
		C6.7219238,4.9398193,7.3766479,5.0681763,7.9888306,5.317749z"/>
	<path class="st2" d="M10.0054932,14.9113159c0.3735352,0,0.7318115-0.147644,0.9968872-0.4107056l0.1725464-0.1724854
		l0.0583496-0.0609131l-0.0253906-0.0177002c-0.309082-0.1945801-0.5964966-0.4216919-0.8573608-0.6773071
		c-0.1213989-0.1182861-0.2365112-0.2426758-0.3450317-0.3729248c-0.1072998,0.133606-0.2216187,0.2615356-0.3424683,0.3829956
		v-0.0049438c-0.263916,0.2657471-0.5565796,0.5014648-0.8726196,0.7025757l0.2181396,0.2207031
		C9.2736816,14.7636719,9.632019,14.9113159,10.0054932,14.9113159z"/>
	<path class="st0" d="M6.4718628,11.9614258l1.4966431,1.4940796l0.15979,0.164917
		c0.3261108-0.1844482,0.6256714-0.4122925,0.8904419-0.6773071c0.2255249-0.2302246,0.4238892-0.4855347,0.5910034-0.7609863
		c-0.4511108-0.0775146-0.8673706-0.2922974-1.1919556-0.6151123s-0.541748-0.737793-0.6217651-1.1885376
		c-0.5927124,0.3654175-1.0831909,0.8751221-1.4256592,1.4814453L6.4718628,11.9614258z"/>
	<path class="st2" d="M11.1749268,5.675415l-0.1699219-0.1674194c-0.1307983-0.1311646-0.2861938-0.2352295-0.4572754-0.3062134
		c-0.1711426-0.0710449-0.3545532-0.1075439-0.5397339-0.1075439s-0.3685913,0.036499-0.5396729,0.1075439
		c-0.1710815,0.0709839-0.326416,0.1750488-0.4572144,0.3062134l-0.225769,0.225769
		C9.0874023,5.9266968,9.3687744,6.1502686,9.625,6.4008789c0.1217651,0.1293945,0.2359009,0.2485962,0.3475342,0.3830566
		c0.1088867-0.1378174,0.225769-0.269104,0.3500366-0.3931885c0.2630005-0.2633057,0.5539551-0.4972534,0.8675537-0.6975708
		L11.1749268,5.675415z"/>
	<path class="st0" d="M7.925415,6.5860596L6.4033813,8.1080933L6.3830566,8.128418
		C6.7241821,8.7261353,7.210022,9.2285767,7.7960205,9.5895386c0.0840454-0.4423218,0.3001709-0.8487549,0.6199341-1.1657715
		C8.7356567,8.1068115,9.1439209,7.894104,9.5869141,7.8138428C9.4171143,7.5374756,9.215332,7.2820435,8.9857178,7.0528564
		C8.7268677,6.7950439,8.4351807,6.5724487,8.1181641,6.3907471L7.925415,6.5860596z"/>
	<path class="st0" d="M13.4174194,7.9102173l-1.4053955-1.4053345l-0.1572266-0.1572266
		c-0.6116943,0.3447266-1.1243896,0.8408813-1.4890747,1.4407959c0.4510498,0.0772705,0.8674927,0.2915649,1.1925049,0.6138306
		c0.3249512,0.3222656,0.5427856,0.7368164,0.6237793,1.1872559c0.5942993-0.3656616,1.085083-0.8773804,1.4255981-1.4865112
		L13.4174194,7.9102173z"/>
	<path class="st1" d="M4.2415161,10.0029907c0-0.6012573,0.2371826-1.1782837,0.6600952-1.6057129l0.3982544-0.3982544
		c-0.2560425-0.6157227-0.387085-1.2762451-0.3855591-1.9431152V6.0026245
		C4.0425415,6.2503052,3.2753906,6.7754517,2.729126,7.4985352c-0.5463257,0.7230835-0.8418579,1.6046143-0.8418579,2.5108643
		c0,0.906189,0.2955322,1.7877197,0.8418579,2.5108032c0.5462646,0.7230835,1.3134155,1.248291,2.1851807,1.4959106
		c0-0.03302,0-0.0634155,0-0.0964355c-0.0011597-0.6594849,0.1272583-1.3128052,0.3779907-1.9227905l-0.390686-0.3880615
		C4.4786987,11.1812744,4.2415161,10.6043091,4.2415161,10.0029907z"/>
	<path class="st2" d="M14.5106812,9.0061035l-0.2359009-0.2333984c-0.2888794,0.4616699-0.6524048,0.8723145-1.0755615,1.2150879
		c0.133606,0.1083374,0.2614746,0.2233887,0.3830566,0.3450317c0.2678223,0.2692871,0.5044556,0.5679932,0.7052002,0.8903809
		L14.5106812,11c0.2630005-0.2651978,0.4106445-0.6234741,0.4106445-0.9970093
		C14.9213257,9.6295776,14.7736816,9.2712402,14.5106812,9.0061035z"/>
	<path class="st1" d="M16.8856812,7.0596924c-0.5043945-0.5153809-1.1339111-0.8909912-1.8270874-1.0900269
		c0.0117798,0.6879272-0.1149902,1.3712158-0.3728638,2.0090942l0.4286499,0.4287109
		c0.4229126,0.4274292,0.6602173,1.0043945,0.6602173,1.6057129s-0.2373047,1.1783447-0.6602173,1.6057129l-0.4210815,0.4008179
		c0.2424927,0.6015015,0.3673096,1.2438965,0.3679199,1.892395c0.0011597,0.0177002,0.0011597,0.0355225,0,0.0532837
		c0.6911011-0.1950684,1.3197021-0.5665894,1.8238525-1.078064c0.5045166-0.5153198,0.8666382-1.15271,1.0509033-1.8499146
		c0.1842041-0.6972046,0.1843262-1.4303589,0.0002441-2.1275635C17.7520752,8.2125854,17.3901978,7.5750732,16.8856812,7.0596924z"
		/>
	<path class="st1" d="M11.6035767,15.1196289c-0.4273682,0.4228516-1.0043945,0.6600952-1.6057129,0.6600952
		c-0.6012573,0-1.1782837-0.2372437-1.6057129-0.6600952l-0.4084473-0.4084473
		C7.34729,14.9744873,6.663269,15.1032104,5.9746704,15.0891113c0.2036133,0.6945801,0.5844727,1.3240967,1.1051636,1.8267822
		s1.163208,0.8613281,1.8644409,1.0405273c0.7012329,0.1790771,1.4370117,0.1726685,2.1350098-0.0187378
		s1.3341064-0.5610962,1.8458862-1.072876h0.0102539c0.5036011-0.505188,0.8687744-1.1315918,1.0603027-1.8187866
		c-0.6708984,0.0133057-1.3377075-0.1083984-1.9608154-0.3577271L11.6035767,15.1196289z"/>
	<path class="st2" d="M6.7838745,9.987793c-0.133606-0.1082153-0.2614746-0.2233887-0.3830566-0.3449707
		C6.1456299,9.385498,5.9178467,9.102356,5.7210083,8.7980957L5.510437,9.0061035
		c-0.2630615,0.2651367-0.4106445,0.6234741-0.4106445,0.9968872c0,0.3735352,0.147583,0.7318115,0.4106445,0.9970093
		l0.2003784,0.1978149c0.197876-0.3125,0.4292603-0.6026001,0.6900024-0.8649902
		C6.5223999,10.2111816,6.6502686,10.0961304,6.7838745,9.987793z"/>
</g>
<g id="Layer_2">
</g>
</svg>
