<?xml version="1.0" encoding="utf-8"?>
<!-- Generator: Adobe Illustrator 24.1.0, SVG Export Plug-In . SVG Version: 6.00 Build 0)  -->
<svg version="1.1" id="Layer_1" xmlns="http://www.w3.org/2000/svg" xmlns:xlink="http://www.w3.org/1999/xlink" x="0px" y="0px"
	 width="20px" height="20px" viewBox="0 0 20 20" style="enable-background:new 0 0 20 20;" xml:space="preserve">
<style type="text/css">
	.st0{fill:#28D9DD;}
	.st1{fill:#1EBC69;}
	.st2{fill:#0098A0;}
</style>
<g id="Layer_4">
	<path class="st0" d="M6.1820679,17.5250244l3.4073486-1.9680176v-3.2944336
		c-0.1118164-0.0205688-0.2216797-0.0505981-0.3284302-0.0897827L6.1820679,17.5250244z"/>
	<path class="st0" d="M10.3513794,12.2677002v3.2584839l0.0360107,0.0154419l3.3815918,1.9345703l-3.071167-5.2982788
		C10.585083,12.2174072,10.4691772,12.2474976,10.3513794,12.2677002z"/>
	<path class="st1" d="M14.4976807,17.1940308V13.15802l-2.840271-1.6292114
		c-0.0845337,0.0999146-0.1771851,0.1925049-0.2770996,0.2770996L14.4976807,17.1940308z"/>
	<path class="st1" d="M13.7973022,2.720459l-3.4329834,1.9884644h-0.005188v3.2790527
		c0.1223755,0.020752,0.2425537,0.0524902,0.3591919,0.0949707L13.7973022,2.720459z"/>
	<path class="st1" d="M9.5945435,7.993103V4.7089233L6.1384277,2.7281494l3.1020508,5.3650513
		C9.3552856,8.0493774,9.4737549,8.0159302,9.5945435,7.993103z"/>
	<path class="st2" d="M5.5046997,13.1810913v3.9744263l3.0789185-5.3779297
		c-0.0918579-0.0788574-0.1776123-0.1646729-0.2565918-0.2564697l-2.8223267,1.6394653
		C5.5046997,13.1810913,5.5046997,13.1810913,5.5046997,13.1810913z"/>
	<path class="st2" d="M7.8549805,10.5023804H1.6329346l3.4586792,2.0013428l2.8557129-1.6523438
		C7.9060669,10.7380981,7.8751221,10.6212769,7.8549805,10.5023804z"/>
	<path class="st0" d="M5.4893188,3.1412354v3.9564209l2.8377075,1.6446533
		C8.401062,8.651001,8.4816895,8.5652466,8.5682373,8.4857788L5.4893188,3.1412354z"/>
	<path class="st1" d="M1.7175903,9.7352905h6.1270752c0.0214233-0.1144409,0.0523071-0.2268677,0.0924072-0.3361206
		L5.0916138,7.767334L1.7175903,9.7352905z"/>
	<path class="st2" d="M12.02948,9.3734741c0.0438232,0.1165771,0.0772095,0.2368164,0.1000366,0.3592529l6.1784058-0.0076904
		l-3.4561157-1.9936523L12.02948,9.3734741z"/>
	<path class="st2" d="M12.0396729,10.8540039l2.84552,1.6342773l3.4047241-1.9859009h-6.1578369
		C12.1121826,10.6221924,12.0812988,10.7399292,12.0396729,10.8540039z"/>
	<path class="st2" d="M14.4694824,3.0950317l-3.0891724,5.3599243c0.0930176,0.0776978,0.178894,0.1635742,0.2565918,0.2565918
		l2.8453979-1.6523438L14.4694824,3.0950317z"/>
</g>
<g id="Layer_2_copy">
	<path d="M19.7164917,9.8738403c-0.0158691-0.0485229-0.0355835-0.0957031-0.059021-0.1411133
		C19.5891724,9.6057129,19.4869995,9.5,19.3624268,9.4273682l-4.1052246-2.3604736l-0.0180054-4.7313232
		c-0.0004883-0.1372681-0.0377197-0.2719116-0.107666-0.3899536c-0.0710449-0.1173096-0.1708374-0.2144775-0.2900391-0.2822266
		c-0.031189-0.0180054-0.0637817-0.0334473-0.0974731-0.0462036c-0.1088257-0.0414429-0.2253418-0.0585327-0.3414917-0.0501099
		s-0.2290039,0.0421753-0.3307495,0.098877L9.9665527,4.0418091L5.8613281,1.6890259
		C5.7423096,1.6194458,5.6066895,1.5830688,5.46875,1.5838013C5.3336182,1.5856323,5.2011719,1.6218262,5.0839233,1.6890259
		c-0.1168213,0.0692139-0.2131958,0.1680908-0.27948,0.2866211C4.7382202,2.0941162,4.7045288,2.2280884,4.7067261,2.3638306
		v4.7363892l-4.0821533,2.378479C0.5198364,9.5425415,0.4318848,9.6305542,0.368042,9.7352905
		C0.2994385,9.8433228,0.2588501,9.9667969,0.25,10.0944824c0,0.0205078,0,0.0385132,0,0.059021s0,0.0410156,0,0.059021
		c0.0072632,0.1020508,0.0351562,0.2015991,0.0820923,0.2924805c0.0657959,0.1322021,0.1682739,0.2426147,0.295105,0.3181763
		l4.1052246,2.3605347l0.0128174,4.7337646c0,0.1362305,0.0360718,0.2698975,0.1045532,0.3875122
		c0.0685425,0.1177368,0.1669922,0.2150269,0.2854614,0.2822266c0.1167603,0.0682983,0.2495117,0.1045532,0.3848267,0.1051636
		c0.1373291-0.0004883,0.2719727-0.0376587,0.3900146-0.1077881l4.1052246-2.3759155l4.1052856,2.3554077
		c0.1038208,0.0560303,0.2183838,0.0892334,0.3361206,0.0975342c0.041748,0.0037842,0.0838623,0.0037842,0.1256714,0
		c0.1107788-0.0085449,0.2185059-0.0408936,0.3156128-0.0949097c0.0933838-0.0571899,0.1737671-0.1332397,0.2359619-0.2233276
		l0.0154419-0.0178833c0.0870972-0.1279297,0.133606-0.2789917,0.1334839-0.4335938v-4.7365112l4.0795288-2.3759155
		c0.1112671-0.0614624,0.2056885-0.1495972,0.2745972-0.2564697c0.0338745-0.0551147,0.0597534-0.1146851,0.0769043-0.177124
		c0.0223999-0.0731812,0.0343628-0.1491699,0.0359497-0.225769C19.7514038,10.0368042,19.7401123,9.9537354,19.7164917,9.8738403z
		 M14.4694824,3.0950317l0.0128174,3.9641724l-2.8453979,1.6523438c-0.0776978-0.0930176-0.1635742-0.178894-0.2565918-0.2565918
		L14.4694824,3.0950317z M10.3591309,4.7089233h0.005188l3.4329834-1.9884644l-3.0789795,5.3624878
		c-0.1166382-0.0424805-0.2368164-0.0742188-0.3591919-0.0949707V4.7089233z M9.5945435,4.7089233V7.993103
		C9.4737549,8.0159302,9.3552856,8.0493774,9.2404785,8.0932007L6.1384277,2.7281494L9.5945435,4.7089233z M5.4893188,3.1412354
		l3.0789185,5.3445435C8.4816895,8.5652466,8.401062,8.651001,8.3270264,8.7423096L5.4893188,7.0976562V3.1412354z
		 M5.0916138,7.767334l2.845459,1.6318359C7.8969727,9.5084229,7.8660889,9.6208496,7.8446655,9.7352905H1.7175903
		L5.0916138,7.767334z M5.0916138,12.5037231l-3.4586792-2.0013428h6.2220459
		c0.0201416,0.1188965,0.0510864,0.2357178,0.0923462,0.348999L5.0916138,12.5037231z M5.5046997,17.1555176v-3.9744263
		c0,0,0,0,0-0.0205078l2.8223267-1.6394653c0.0789795,0.0917969,0.1647339,0.1776123,0.2565918,0.2564697L5.5046997,17.1555176z
		 M9.5894165,15.5570068l-3.4073486,1.9680176l3.0789185-5.3522339c0.1067505,0.0391846,0.2166138,0.0692139,0.3284302,0.0897827
		V15.5570068z M9.9922485,11.5313721c-0.7751465,0-1.4035034-0.6283569-1.4035034-1.4034424
		c0-0.7751465,0.6283569-1.4035034,1.4035034-1.4035034c0.7750244,0,1.4034424,0.6283569,1.4034424,1.4035034
		C11.3956909,10.9030151,10.7672729,11.5313721,9.9922485,11.5313721z M10.3873901,15.541626l-0.0360107-0.0154419v-3.2584839
		c0.1177979-0.0202026,0.2337036-0.050293,0.3464355-0.0897827l3.071167,5.2982788L10.3873901,15.541626z M14.4976807,17.1940308
		l-3.1173706-5.3881226c0.0999146-0.0845947,0.1925659-0.1771851,0.2770996-0.2770996l2.840271,1.6292114V17.1940308z
		 M14.8851929,12.4882812l-2.84552-1.6342773c0.041626-0.1140747,0.0725098-0.2318115,0.0924072-0.3516235h6.1578369
		L14.8851929,12.4882812z M12.1295166,9.7327271c-0.0228271-0.1224365-0.0562134-0.2426758-0.1000366-0.3592529l2.8223267-1.6420898
		l3.4561157,1.9936523L12.1295166,9.7327271z"/>
</g>
</svg>
