<?xml version="1.0" encoding="utf-8"?>
<!-- Generator: Adobe Illustrator 24.3.0, SVG Export Plug-In . SVG Version: 6.00 Build 0)  -->
<svg version="1.1" id="Layer_1" xmlns="http://www.w3.org/2000/svg" xmlns:xlink="http://www.w3.org/1999/xlink" x="0px" y="0px"
	 viewBox="0 0 20 20" style="enable-background:new 0 0 20 20;" xml:space="preserve">
<style type="text/css">
	.st0{fill:#9C2C00;}
	.st1{fill:#9C2C00;stroke:#000000;stroke-width:1.5;stroke-linejoin:round;stroke-miterlimit:10;}
	.st2{fill:#FFFFFF;}
	.st3{display:none;}
</style>
<g id="Layer_1_1_">
	<path d="M13.4,6.4c-1.2,1.3-1.8,1.9-2.4,1.9c-0.6,0-1.2-0.6-2.4-1.9c-3,0-5.4,2.6-5.4,5.7c0,3.2,2.4,5.7,5.4,5.7
		c1.2-1.4,1.8-2.1,2.4-2.1c0.6,0,1.2,0.7,2.4,2.1c2,0,3.5-1.2,4.4-2.8c-0.1-0.1-0.4-0.3-1-0.3s-1.2,0.3-1.6,0.8L14.6,15
		c0.4-0.4,0.9-0.7,1.4-0.9c0.3-0.1,0.6-0.2,0.9-0.2c0.4,0,0.8,0.1,1.2,0.4c0.2-0.3,0.6-1.5,0.6-2.5C18.8,8.8,16.4,6.4,13.4,6.4
		L13.4,6.4z"/>
	<path class="st0" d="M8.3,17.3c-2.6-0.1-4.7-2.4-4.7-5.2S5.7,7,8.3,6.9c1.2,1.3,1.8,1.9,2.6,1.9c0.8,0,1.5-0.6,2.7-1.9
		c2.5,0.1,4.5,2.3,4.5,4.9c0,2.5-1.9,5.4-4.6,5.5c-1.3-1.5-1.9-2.1-2.7-2.1C10.2,15.2,9.5,15.9,8.3,17.3z"/>
	<path id="Abdominal_Stripe" class="st1" d="M11.2765,15.7c0.4537-2.956,0.4537-4.8173,0-7.4449"/>
	<path d="M13.4,6.4c-0.5,0-0.4,11.4,0.1,11.4c2.9,0,4.3-2.8,4.3-2.8c-0.1-0.1-0.4-0.3-1-0.3s-1.2,0.3-1.6,0.8L14.6,15
		c0.4-0.4,0.9-0.7,1.4-0.9c0.6-0.2,1.4-0.3,2.1,0.2c0.4-0.9,0.6-2,0.6-2.5C18.8,8.8,16.4,6.4,13.4,6.4z"/>
	<path class="st0" d="M17.8,15c-0.1-0.1-0.4-0.3-1-0.3s-1.2,0.3-1.6,0.8L14.6,15c0.4-0.4,0.9-0.7,1.4-0.9c0.6-0.2,1.4-0.3,2.1,0.2
		C18.5,13.4,17.8,15,17.8,15z"/>
	<path class="st0" d="M17.0042,10.4453c-0.2455,0.4253-0.9643,0.4699-1.6054,0.0998s-0.9618-1.015-0.7163-1.4402
		S17.2498,10.0201,17.0042,10.4453z"/>
	<path d="M8.537,17.7c-2.5651,0-4.8095-2-5.237-4.7v-1.7l0,0c0.4275-2.7,2.5651-4.7,5.237-4.7C10,7.8158,10,16.2491,8.537,17.7z"/>
	<path class="st0" d="M7.8259,7.7c-2.0551,0-3.7365,2-3.7365,4.4s1.6814,4.4,3.7365,4.4c0.1868,0,0.1868-0.2,0.2802-0.5
		C8.1996,14.8,8.3864,7.9,7.8259,7.7C7.9193,7.7,7.8259,7.7,7.8259,7.7z"/>
	<path d="M1.5,12.1l2.1-0.6c0,0.2,0,0.4,0,0.6s0,0.4,0,0.6L1.5,12.1z"/>
	<path d="M10.2,0.1c-0.1,0-0.2,0-0.3,0.1C9.3,0.4,9.2,1.6,9.6,3.1C9.7,3.4,10.2,4,11.1,5c0.4,0.5,1.3,1.8,2.2,2.1
		c0.4-0.2,0.9-1.7,0-3.8C12.4,1.4,11.1,0.1,10.2,0.1L10.2,0.1z"/>
	<path class="st2" d="M10.2,0.8c0.4,0,1.4,0.9,2.3,2.8C13,4.7,13,5.6,12.9,6c-0.4-0.4-0.9-1-1.1-1.3c-0.1-0.1-0.1-0.2-0.2-0.3
		C11.4,4.2,11.2,4,11,3.7c-0.3-0.4-0.6-0.7-0.7-0.9C10,1.6,10.2,0.9,10.2,0.8L10.2,0.8"/>
	<path d="M5.1,0.6c-0.6,0-1,0.1-1.3,0.5C3,2,4.5,4.4,7,6.4c1.8,1.4,3.6,2.3,4.8,2.3c0.5,0,0.9-0.1,1.1-0.4c0.9-1.1-0.4-3.6-2.9-5.6
		C8.3,1.3,6.4,0.6,5.1,0.6L5.1,0.6z"/>
	<path class="st2" d="M5.1,1.6L5.1,1.6c1,0,2.7,0.6,4.3,1.9c1.8,1.4,2.7,3,2.8,3.8c0,0.2,0,0.3-0.1,0.4c0,0-0.1,0.1-0.3,0.1
		c-0.7,0-2.3-0.5-4.2-2.1c-2.3-1.8-3.1-3.5-3-3.9C4.6,1.7,4.8,1.6,5.1,1.6"/>
</g>
<g id="Guides" class="st3">
</g>
</svg>
