<?xml version="1.0" encoding="utf-8"?>
<!-- Generator: Adobe Illustrator 24.3.0, SVG Export Plug-In . SVG Version: 6.00 Build 0)  -->
<svg version="1.1" id="Layer_1" xmlns="http://www.w3.org/2000/svg" xmlns:xlink="http://www.w3.org/1999/xlink" x="0px" y="0px"
	 viewBox="0 0 20 20" style="enable-background:new 0 0 20 20;" xml:space="preserve">
<style type="text/css">
	.st0{fill:#FFFFFF;}
</style>
<path id="black-bg-outline" d="M2.2,1.7C2.1,1.8,2,1.9,1.9,2C1.6,2.4,1.3,2.9,1.3,3.4c0,0,0,0.1,0,0.1v13.1c0,0,0,0.1,0,0.1
	c0,0.5,0.3,1.1,0.7,1.4c0.4,0.4,0.9,0.6,1.5,0.6h13.1c0.6,0,1.1-0.2,1.5-0.6c0.4-0.4,0.6-0.9,0.6-1.5V3.5c0-0.6-0.2-1.1-0.6-1.5
	c-0.4-0.4-1-0.6-1.5-0.6H3.5C3,1.3,2.6,1.5,2.2,1.7z"/>
<path id="white-sqs234678" class="st0" d="M3.5,17.7h3.3v-4.5H2.3v3.3c0,0.3,0.1,0.6,0.3,0.8C2.9,17.6,3.2,17.7,3.5,17.7z M17.7,6.8
	V3.5c0-0.1,0-0.2,0-0.2c0-0.2-0.2-0.4-0.3-0.6c-0.2-0.2-0.5-0.3-0.8-0.3h-3.3v4.5H17.7z M13.2,7.7v4.6h4.5V7.7H13.2z M7.7,2.3v4.5
	h4.6V2.3H7.7z M2.3,7.7v4.6h4.5V7.7H2.3z M7.7,13.2v4.5h4.6v-4.5H7.7z"/>
</svg>
